<svg xmlns="http://www.w3.org/2000/svg" xmlns:xlink="http://www.w3.org/1999/xlink" width="27.1455078125" height="27.145263671875" viewBox="0 0 27.1455078125 27.145263671875" fill="none">
<path d="M13.5726 21.7163C15.8347 21.7163 17.7575 20.9246 19.341 19.3411C20.9245 17.7577 21.7162 15.8348 21.7162 13.5726C21.7162 11.3105 20.9245 9.3877 19.341 7.80432C17.7575 6.22083 15.8347 5.4292 13.5726 5.4292C11.3105 5.4292 9.38773 6.22083 7.80426 7.80432C6.22079 9.3877 5.42905 11.3105 5.42905 13.5726C5.42905 15.8348 6.22079 17.7577 7.80426 19.3411C9.38773 20.9246 11.3105 21.7163 13.5726 21.7163ZM9.50084 14.9299L9.50084 12.2155L17.6444 12.2155L17.6444 14.9299L9.50084 14.9299ZM13.5726 27.1453C11.6951 27.1453 9.93063 26.7891 8.2793 26.0764C6.62797 25.364 5.19154 24.3969 3.96998 23.1753C2.74845 21.9539 1.78139 20.5175 1.06886 18.8661C0.35627 17.2147 0 15.4503 0 13.5726C0 11.6952 0.35627 9.93066 1.06886 8.27942C1.78139 6.62805 2.74845 5.19165 3.96998 3.97009C5.19154 2.74854 6.62797 1.78162 8.2793 1.06897C9.93063 0.356323 11.6951 0 13.5726 0C15.4502 0 17.2146 0.356323 18.866 1.06897C20.5173 1.78162 21.9537 2.74854 23.1753 3.97009C24.3968 5.19165 25.3639 6.62805 26.0764 8.27942C26.789 9.93066 27.1453 11.6952 27.1453 13.5726C27.1453 15.4503 26.789 17.2147 26.0764 18.8661C25.3639 20.5175 24.3968 21.9539 23.1753 23.1753C21.9537 24.3969 20.5173 25.364 18.866 26.0764C17.2146 26.7891 15.4502 27.1453 13.5726 27.1453ZM13.5726 24.4308C16.6039 24.4308 19.1713 23.379 21.2751 21.2753C23.3789 19.1714 24.4307 16.604 24.4307 13.5726C24.4307 10.5415 23.3789 7.974 21.2751 5.87024C19.1713 3.76648 16.6039 2.7146 13.5726 2.7146C10.5414 2.7146 7.97392 3.76648 5.87016 5.87024C3.7664 7.974 2.71452 10.5415 2.71452 13.5726C2.71452 16.604 3.7664 19.1714 5.87016 21.2753C7.97392 23.379 10.5414 24.4308 13.5726 24.4308Z"   fill="#FFFFFF" >
</path>
</svg>
