<svg xmlns="http://www.w3.org/2000/svg" xmlns:xlink="http://www.w3.org/1999/xlink" width="23.98028564453125" height="23.9803466796875" viewBox="0 0 23.98028564453125 23.9803466796875" fill="none">
<path d="M11.9902 0C5.3716 0 0 5.3716 0 11.9902C0 18.6087 5.3716 23.9803 11.9902 23.9803C18.6087 23.9803 23.9803 18.6087 23.9803 11.9902C23.9803 5.3716 18.6087 0 11.9902 0ZM11.9902 3.59705C13.9805 3.59705 15.5872 5.20374 15.5872 7.1941C15.5872 9.18447 13.9805 10.7912 11.9902 10.7912C9.9998 10.7912 8.39312 9.18447 8.39312 7.1941C8.39312 5.20374 9.9998 3.59705 11.9902 3.59705ZM11.9902 20.6231C8.99263 20.6231 6.3428 19.0884 4.79607 16.7623C4.83204 14.3762 9.59214 13.0693 11.9902 13.0693C14.3762 13.0693 19.1483 14.3762 19.1843 16.7623C17.6375 19.0884 14.9877 20.6231 11.9902 20.6231Z"   fill="#FFFFFF" >
</path>
</svg>
