<svg xmlns="http://www.w3.org/2000/svg" xmlns:xlink="http://www.w3.org/1999/xlink" width="21.08758544921875" height="28.1124267578125" viewBox="0 0 21.08758544921875 28.1124267578125" fill="none">
<path d="M12.5208 0C12.5208 0 13.4961 3.49263 13.4961 6.32628C13.4961 9.0413 11.7168 11.2423 9.00176 11.2423C6.27356 11.2423 4.21752 9.0413 4.21752 6.32628L4.25706 5.85181C1.59475 9.01494 0 13.1138 0 17.5686C0 23.394 4.71835 28.1124 10.5438 28.1124C16.3692 28.1124 21.0876 23.394 21.0876 17.5686C21.0876 10.4647 17.674 4.12526 12.5208 0ZM10.1616 24.1585C7.81559 24.1585 5.9177 22.3133 5.9177 20.02C5.9177 17.8849 7.30158 16.3824 9.62121 15.9079C11.954 15.4335 14.3659 14.3132 15.7102 12.5076C16.2243 14.2078 16.4879 16.0002 16.4879 17.8322C16.4879 21.3248 13.6542 24.1585 10.1616 24.1585L10.1616 24.1585Z"   fill="#FFFFFF" >
</path>
</svg>
