<?xml version="1.0" encoding="UTF-8"?>
<svg id="Layer_1" xmlns="http://www.w3.org/2000/svg" viewBox="0 0 226.93 205.45">
  <defs>
    <style>
      .cls-1 {
        fill: #67cad7;
        isolation: isolate;
        opacity: .7;
      }

      .cls-2 {
        fill: #806eb1;
      }

      .cls-3 {
        fill: #3c3b97;
      }
    </style>
  </defs>
  <path class="cls-2" d="M158.44,136.97c-.39,0-.77,0-1.16-.01h.01-20.31c0-16.08-5.55-30.86-14.83-42.55l10.11-17.51c2.16-3.74-.54-8.41-4.86-8.41h-37.45c0-45.91,45.17-81.26,93.48-64.06,18.22,6.49,32.64,20.93,39.11,39.16,17.11,48.29-18.24,93.38-64.1,93.38Z"/>
  <path class="cls-3" d="M136.98,136.97h-37.45c-4.32,0-7.02-4.67-4.86-8.41l10.11-17.51c-9.28-11.69-14.83-26.47-14.83-42.56h37.45c4.32,0,7.02,4.67,4.86,8.41l-10.11,17.51c9.28,11.69,14.83,26.47,14.83,42.56Z"/>
  <path class="cls-1" d="M136.98,136.97h0c0,45.91-45.18,81.26-93.48,64.06-18.23-6.49-32.64-20.93-39.11-39.16-17.11-48.29,18.24-93.38,64.1-93.38.39,0,.77,0,1.16,0h-.01,20.31c0,16.08,5.55,30.86,14.83,42.55l-10.11,17.51c-2.16,3.74.54,8.41,4.86,8.41h37.45Z"/>
</svg>