<svg xmlns="http://www.w3.org/2000/svg" xmlns:xlink="http://www.w3.org/1999/xlink" width="59.0955810546875" height="73.86932373046875" viewBox="0 0 59.0955810546875 73.86932373046875" fill="none">
<g opacity="0.9">
<path d="M0 62.7889L0 55.402L7.38692 55.402L7.38692 29.5477C7.38692 24.4384 8.9259 19.8986 12.0038 15.928C15.0817 11.9576 19.0829 9.35669 24.0076 8.12567L24.0076 5.54016C24.0076 4.00128 24.5462 2.69299 25.6234 1.61591C26.7007 0.538696 28.0088 0 29.5478 0C31.0867 0 32.3948 0.538696 33.4721 1.61591C34.5493 2.69299 35.088 4.00128 35.088 5.54016L35.088 8.12567C40.0126 9.35669 44.0139 11.9576 47.0918 15.928C50.1696 19.8986 51.7086 24.4384 51.7086 29.5477L51.7086 55.402L59.0955 55.402L59.0955 62.7889L0 62.7889ZM29.5478 73.8693C27.5164 73.8693 25.7773 73.1461 24.3307 71.6993C22.8841 70.2529 22.1608 68.5139 22.1608 66.4824L36.9347 66.4824C36.9347 68.5139 36.2114 70.2529 34.7648 71.6993C33.3182 73.1461 31.5792 73.8693 29.5478 73.8693ZM14.7739 55.402L44.3216 55.402L44.3216 29.5477C44.3216 25.485 42.875 22.0067 39.9818 19.1136C37.0886 16.2205 33.6106 14.7739 29.5478 14.7739C25.4849 14.7739 22.0069 16.2205 19.1137 19.1136C16.2205 22.0067 14.7739 25.485 14.7739 29.5477L14.7739 55.402Z"   fill="#CCCCCC" >
</path>
</g>
</svg>
