<svg xmlns="http://www.w3.org/2000/svg" xmlns:xlink="http://www.w3.org/1999/xlink" width="27.14990234375" height="27.14990234375" viewBox="0 0 27.14990234375 27.14990234375" fill="none">
<path d="M9.50252 21.72L16.9688 21.72C17.3534 21.72 17.7097 21.6238 18.0378 21.4315C18.3659 21.2392 18.5977 20.9734 18.7335 20.634L21.5843 13.9822C21.6295 13.8691 21.6635 13.756 21.6861 13.6428C21.7087 13.5297 21.72 13.4166 21.72 13.3035L21.72 12.2175C21.72 11.8329 21.5899 11.5104 21.3297 11.2502C21.0695 10.9901 20.7471 10.86 20.3625 10.86L14.118 10.86L14.9325 6.24451C14.9778 6.01825 14.9664 5.80334 14.8986 5.59967C14.8307 5.396 14.7176 5.21503 14.5592 5.05664L13.575 4.07251L7.33051 10.86C7.14952 11.041 7.01375 11.2446 6.92325 11.4708C6.83276 11.6971 6.78752 11.946 6.78752 12.2175L6.78752 19.005C6.78752 19.7516 7.05334 20.3907 7.58504 20.9225C8.11673 21.4541 8.75589 21.72 9.50252 21.72ZM13.575 27.15C11.6971 27.15 9.93237 26.7936 8.28076 26.0809C6.62914 25.3683 5.19244 24.4011 3.9707 23.1793C2.74895 21.9575 1.78172 20.5209 1.06905 18.8693C0.356339 17.2177 0 15.4529 0 13.575C0 11.6971 0.356339 9.93237 1.06905 8.28076C1.78172 6.62909 2.74895 5.19238 3.9707 3.9707C5.19244 2.7489 6.62914 1.78168 8.28076 1.06903C9.93237 0.356323 11.6971 0 13.575 0C15.4529 0 17.2176 0.356323 18.8693 1.06903C20.5209 1.78168 21.9576 2.7489 23.1793 3.9707C24.4011 5.19238 25.3683 6.62909 26.081 8.28076C26.7937 9.93237 27.15 11.6971 27.15 13.575C27.15 15.4529 26.7937 17.2177 26.081 18.8693C25.3683 20.5209 24.4011 21.9575 23.1793 23.1793C21.9576 24.4011 20.5209 25.3683 18.8693 26.0809C17.2176 26.7936 15.4529 27.15 13.575 27.15ZM13.575 24.435C16.6068 24.435 19.1747 23.3829 21.2788 21.2788C23.3829 19.1747 24.435 16.6067 24.435 13.575C24.435 10.5432 23.3829 7.97528 21.2788 5.87122C19.1747 3.76703 16.6068 2.71497 13.575 2.71497C10.5433 2.71497 7.97531 3.76703 5.8712 5.87122C3.76707 7.97528 2.71501 10.5432 2.71501 13.575C2.71501 16.6067 3.76707 19.1747 5.8712 21.2788C7.97531 23.3829 10.5433 24.435 13.575 24.435Z"   fill="#FFFFFF" >
</path>
</svg>
