<svg xmlns="http://www.w3.org/2000/svg" xmlns:xlink="http://www.w3.org/1999/xlink" width="8.7095947265625" height="12.4423828125" viewBox="0 0 8.7095947265625 12.4423828125" fill="none">
<path d="M3.42163 1.2442L5.28799 1.2442L3.42163 1.2442ZM3.42163 11.1981L5.28799 11.1981L3.42163 11.1981ZM2.48846 12.4423L1.64862 9.61169C1.15094 9.21771 0.75174 8.72516 0.45105 8.13416C0.15036 7.54315 0 6.90546 0 6.22113C0 5.53687 0.15036 4.89917 0.45105 4.30817C0.75174 3.71716 1.15094 3.22467 1.64862 2.83063L2.48846 0L6.22113 0L7.061 2.83063C7.55872 3.22467 7.95789 3.71716 8.25858 4.30817C8.55927 4.89917 8.70959 5.53687 8.70959 6.22113C8.70959 6.90546 8.55927 7.54315 8.25858 8.13416C7.95789 8.72516 7.55872 9.21771 7.061 9.61169L6.22113 12.4423L2.48846 12.4423ZM4.3548 9.33173C5.21539 9.33173 5.94897 9.02844 6.55554 8.42188C7.16208 7.81531 7.46539 7.08179 7.46539 6.22113C7.46539 5.36053 7.16208 4.62701 6.55554 4.02045C5.94897 3.41388 5.21539 3.1106 4.3548 3.1106C3.4942 3.1106 2.76065 3.41388 2.15408 4.02045C1.54752 4.62701 1.24423 5.36053 1.24423 6.22113C1.24423 7.08179 1.54752 7.81531 2.15408 8.42188C2.76065 9.02844 3.4942 9.33173 4.3548 9.33173ZM3.17279 2.02185C3.38016 1.97003 3.57974 1.92859 3.77158 1.89746C3.96341 1.86633 4.15781 1.85077 4.3548 1.85077C4.55182 1.85077 4.74622 1.86633 4.93805 1.89746C5.12985 1.92859 5.32944 1.97003 5.5368 2.02185L5.28799 1.2442L3.42163 1.2442L3.17279 2.02185ZM3.42163 11.1981L5.28799 11.1981L5.5368 10.4204C5.32944 10.4722 5.12985 10.5112 4.93805 10.5371C4.74622 10.563 4.55182 10.5759 4.3548 10.5759C4.15781 10.5759 3.96341 10.563 3.77158 10.5371C3.57974 10.5112 3.38016 10.4722 3.17279 10.4204L3.42163 11.1981Z"   fill="#FFFFFF" >
</path>
</svg>
