<svg xmlns="http://www.w3.org/2000/svg" xmlns:xlink="http://www.w3.org/1999/xlink" width="15.21533203125" height="13.69384765625" viewBox="0 0 15.21533203125 13.69384765625" fill="none">
<path d="M6.84692 13.6938L6.84692 12.1722L12.9331 12.1722L12.9331 6.77087C12.9331 5.28735 12.4164 4.02893 11.383 2.99548C10.3496 1.96216 9.09119 1.44543 7.6077 1.44543C6.1242 1.44543 4.86576 1.96216 3.83238 2.99548C2.799 4.02893 2.28231 5.28735 2.28231 6.77087L2.28231 11.4115L1.52155 11.4115C1.10312 11.4115 0.744926 11.2626 0.446953 10.9646C0.148987 10.6666 0 10.3085 0 9.89001L0 8.36841C0 8.10217 0.0665741 7.85168 0.199707 7.61719C0.33284 7.38257 0.519859 7.19556 0.760773 7.05615L0.817833 6.0481C0.919266 5.18591 1.16969 4.38708 1.56909 3.65161C1.9685 2.91626 2.46934 2.27588 3.07161 1.73071C3.67389 1.18555 4.36491 0.760742 5.14471 0.456421C5.92449 0.1521 6.74549 0 7.6077 0C8.4699 0 9.28773 0.1521 10.0612 0.456421C10.8346 0.760742 11.5257 1.18237 12.1343 1.72119C12.7429 2.26013 13.2437 2.89722 13.6368 3.63269C14.0299 4.36804 14.2834 5.16687 14.3976 6.02905L14.4546 7.01807C14.6955 7.1322 14.8826 7.30334 15.0157 7.53162C15.1488 7.75977 15.2154 8.00073 15.2154 8.25427L15.2154 10.004C15.2154 10.2577 15.1488 10.4985 15.0157 10.7268C14.8826 10.9551 14.6955 11.1262 14.4546 11.2404L14.4546 12.1722C14.4546 12.5907 14.3056 12.9489 14.0077 13.2468C13.7097 13.5448 13.3515 13.6938 12.9331 13.6938L6.84692 13.6938ZM5.32539 8.36841C5.10984 8.36841 4.92916 8.29553 4.78334 8.14978C4.63753 8.00391 4.56462 7.82324 4.56462 7.60767C4.56462 7.39209 4.63753 7.21143 4.78334 7.06567C4.92916 6.9198 5.10984 6.84692 5.32539 6.84692C5.54094 6.84692 5.72163 6.9198 5.86744 7.06567C6.01325 7.21143 6.08616 7.39209 6.08616 7.60767C6.08616 7.82324 6.01325 8.00391 5.86744 8.14978C5.72163 8.29553 5.54094 8.36841 5.32539 8.36841ZM9.89001 8.36841C9.67445 8.36841 9.49377 8.29553 9.34795 8.14978C9.20214 8.00391 9.12923 7.82324 9.12923 7.60767C9.12923 7.39209 9.20214 7.21143 9.34795 7.06567C9.49377 6.9198 9.67445 6.84692 9.89001 6.84692C10.1056 6.84692 10.2862 6.9198 10.4321 7.06567C10.5779 7.21143 10.6508 7.39209 10.6508 7.60767C10.6508 7.82324 10.5779 8.00391 10.4321 8.14978C10.2862 8.29553 10.1056 8.36841 9.89001 8.36841ZM3.0621 7.18921C2.97334 5.84521 3.37909 4.69141 4.27933 3.72778C5.17957 2.76416 6.30171 2.28223 7.64574 2.28223C8.77421 2.28223 9.76638 2.6405 10.6222 3.35681C11.4781 4.07324 11.9948 4.98938 12.1723 6.1051C11.0185 6.09241 9.95657 5.78186 8.98659 5.17322C8.01662 4.56458 7.27169 3.74048 6.75183 2.70068C6.54897 3.71509 6.12103 4.61853 5.46803 5.41089C4.81504 6.20337 4.01306 6.79614 3.0621 7.18921Z"   fill="#FFFFFF" >
</path>
</svg>
