<svg xmlns="http://www.w3.org/2000/svg" xmlns:xlink="http://www.w3.org/1999/xlink" width="13.04541015625" height="16.306884765625" viewBox="0 0 13.04541015625 16.306884765625" fill="none">
<path d="M4.23979 11.0887L6.52278 9.37659L8.76498 11.0887L7.90889 8.31659L10.1918 6.52283L7.41965 6.52283L6.52278 3.75067L5.6259 6.52283L2.85371 6.52283L5.0959 8.31659L4.23979 11.0887ZM6.52278 16.3069C4.63388 15.8314 3.07452 14.7477 1.84474 13.0558C0.614883 11.364 0 9.48535 0 7.41974L0 2.44617L6.52278 0L13.0455 2.44617L13.0455 7.41974C13.0455 9.48535 12.4307 11.364 11.2008 13.0558C9.97102 14.7477 8.41167 15.8314 6.52278 16.3069ZM6.52278 14.5948C7.93604 14.1464 9.10472 13.2495 10.0287 11.9042C10.9528 10.5588 11.4149 9.06403 11.4149 7.41974L11.4149 3.56726L6.52278 1.73267L1.63069 3.56726L1.63069 7.41974C1.63069 9.06403 2.09274 10.5588 3.0168 11.9042C3.94083 13.2495 5.10951 14.1464 6.52278 14.5948Z"   fill="#FFFFFF" >
</path>
</svg>
