<svg xmlns="http://www.w3.org/2000/svg" xmlns:xlink="http://www.w3.org/1999/xlink" width="1633" height="805" viewBox="0 0 1633 805" fill="none">
<rect  x="0" y="0" width="1633" height="805" rx="48"    fill="#2E4055" >
</rect>
<path fill-rule="evenodd"  fill="rgba(112, 112, 112, 1)"  d="M1585 0L48 0C21.4903 0 0 21.4903 0 48L0 757C0 783.51 21.4903 805 48 805L1585 805C1611.51 805 1633 783.51 1633 757L1633 48C1633 21.4903 1611.51 0 1585 0ZM1 48C1 22.0426 22.0426 1 48 1L1585 1C1610.96 1 1632 22.0426 1632 48L1632 757C1632 782.957 1610.96 804 1585 804L48 804C22.0426 804 1 782.957 1 757L1 48Z">
</path>
</svg>
