<svg xmlns="http://www.w3.org/2000/svg" xmlns:xlink="http://www.w3.org/1999/xlink" width="26.737152099609375" height="26.737060546875" viewBox="0 0 26.737152099609375 26.737060546875" fill="none">
<path   fill="rgba(255, 255, 255, 1)"  d="M13.3686 0C20.7518 0 26.7372 5.98532 26.7372 13.3686C26.7372 20.7518 20.7518 26.7372 13.3686 26.7372L-1.19209e-07 26.7372L0 13.3686C0 5.98532 5.98532 0 13.3686 0ZM13.3686 3C7.64217 3 3 7.64217 3 13.3686L3 25.2372L1.5 25.2372L1.5 23.7372L13.3686 23.7372C19.095 23.7372 23.7372 19.095 23.7372 13.3686C23.7372 7.64217 19.095 3 13.3686 3Z">
</path>
<circle cx="7.24682891368866" cy="13.93353545665741" r="1.7831448316574097"   fill="#FFFFFF" >
</circle>
<circle cx="13.487826228141785" cy="13.93353545665741" r="1.7831448316574097"   fill="#FFFFFF" >
</circle>
<circle cx="19.72882354259491" cy="13.93353545665741" r="1.7831448316574097"   fill="#FFFFFF" >
</circle>
</svg>
