<svg xmlns="http://www.w3.org/2000/svg" xmlns:xlink="http://www.w3.org/1999/xlink" width="712" height="793" viewBox="0 0 712 793" fill="none">
<path     fill="#1C222A"  d="M27 -8.38883e-14L685 -8.38883e-14C699.912 -8.38883e-14 712 12.0883 712 27L712 97L0 97L4.28626e-15 27C5.19934e-15 12.0883 12.0883 -8.57145e-14 27 -8.38883e-14Z">
</path>
<path fill-rule="evenodd"  fill="rgba(112, 112, 112, 1)"  d="M685 0L27 0C12.0883 0 0 12.0883 0 27L0 97L712 97L712 27C712 12.0883 699.912 0 685 0ZM711 96L711 27C711 12.6406 699.359 1 685 1L27 1C12.6406 1 1 12.6406 1 27L1 96L711 96Z">
</path>
<rect  x="0" y="88" width="712" height="597"    fill="#283847" >
</rect>
<path fill-rule="evenodd"  fill="rgba(112, 112, 112, 1)"  d="M712 88L0 88L0 685L712 685L712 88ZM1 684L1 89L711 89L711 684L1 684Z">
</path>
<path     fill="#1C222A"  d="M0 683L712 683L712 766C712 780.912 699.912 793 685 793L27 793C12.0883 793 -1.79861e-14 780.912 -1.52469e-14 766L0 683Z">
</path>
<path fill-rule="evenodd"  fill="rgba(112, 112, 112, 1)"  d="M0 683L0 766C0 780.912 12.0883 793 27 793L685 793C699.912 793 712 780.912 712 766L712 683L0 683ZM1 684L1 766C1 780.359 12.6406 792 27 792L685 792C699.359 792 711 780.359 711 766L711 684L1 684Z">
</path>
</svg>
