<svg xmlns="http://www.w3.org/2000/svg" xmlns:xlink="http://www.w3.org/1999/xlink" width="55" height="55" viewBox="0 0 55 55" fill="none">
<circle cx="27.5" cy="27.5" r="27.5"   fill="#000000" >
</circle>
<path d="M15.2257 31.9145C15.3442 29.4053 15.4289 26.9162 15.593 24.4325C15.675 23.1984 16.4662 22.3416 17.4669 21.7228C18.1323 21.3108 18.8669 21.0027 19.5897 20.691C20.7882 20.1751 22.0014 19.693 23.209 19.2008C23.7477 18.9811 24.0257 18.3468 23.6921 17.8719C22.6056 16.327 22.3723 14.5397 22.1262 12.7451C21.9831 11.7051 21.7926 10.6624 22.0615 9.6234C22.5628 7.68476 23.8935 6.49624 25.7292 5.90289C28.1226 5.12907 30.5261 5.91838 32.1084 7.86613C32.9487 8.90062 33.1975 10.1083 33.0444 11.3788C32.8685 12.8371 32.6397 14.2964 32.3107 15.7264C32.1448 16.4473 31.6736 17.0926 31.402 17.7954C31.2735 18.1289 31.2516 18.52 31.2662 18.8809C31.2707 18.9875 31.556 19.106 31.7292 19.178C33.3133 19.8324 34.911 20.4568 36.486 21.1322C37.6864 21.6471 38.7072 22.3927 39.2322 23.6532C39.3243 23.8747 39.4035 24.1171 39.4154 24.3541C39.5476 26.8697 39.6651 29.3862 39.7873 31.9054C39.4509 31.992 39.1474 32.0704 38.7911 32.1624C38.7382 31.2054 38.679 30.2548 38.6343 29.3032C38.5632 27.7857 38.5021 26.2681 38.4374 24.7506C38.401 23.9093 37.9881 23.2458 37.3127 22.8156C36.5899 22.3553 35.8034 21.9825 35.0168 21.6362C33.7982 21.0984 32.555 20.6135 31.3364 20.1122C31.2908 20.1524 31.2507 20.1733 31.2525 20.1879C31.3628 20.897 30.959 21.34 30.4814 21.7747C29.9546 22.2551 29.4816 22.7946 28.9593 23.2795C28.7224 23.4992 28.6877 23.7015 28.7716 23.9996C29.1927 25.4888 29.57 26.99 30.0139 28.472C30.2481 29.254 30.1943 29.8765 29.498 30.4097C29.0304 30.767 28.6385 31.2227 28.2119 31.6338C27.707 32.1205 27.336 32.1251 26.8402 31.6538C26.3007 31.1416 25.7629 30.6276 25.2224 30.1172C24.8186 29.7362 24.7803 29.2759 24.9189 28.7746C25.3418 27.2388 25.7547 25.7003 26.1949 24.17C26.307 23.7817 26.2861 23.5028 25.9561 23.2157C25.4649 22.7873 25.0319 22.2933 24.5634 21.8385C24.0831 21.3709 23.5189 20.9517 23.827 20.0503C23.0951 20.3492 22.4808 20.5971 21.8701 20.8514C20.7636 21.3126 19.6371 21.731 18.5616 22.255C17.5544 22.7454 16.6958 23.4345 16.581 24.6768C16.5208 25.3266 16.5099 25.981 16.4807 26.6336C16.4087 28.2423 16.3404 29.851 16.2684 31.4597C16.2584 31.6848 16.2319 31.91 16.211 32.1561C15.881 32.0749 15.5793 32.002 15.2248 31.9154L15.2257 31.9145ZM27.5129 6.68399C24.5488 6.68582 22.6995 8.73018 23.014 11.6705C23.0978 12.4543 23.1963 13.2382 23.3321 14.0138C23.5417 15.2151 23.8224 16.4036 24.6272 17.3697C25.4767 18.3896 26.5732 18.9119 27.913 18.746C29.5955 18.5382 30.6501 17.5292 31.1851 15.9652C31.7648 14.2727 31.9461 12.5045 32.0382 10.7317C32.0601 10.3042 31.9771 9.84579 31.834 9.4402C31.2543 7.80142 29.4679 6.68126 27.5138 6.68217L27.5129 6.68399ZM24.773 18.9228C24.773 19.4961 24.7667 19.9755 24.7785 20.4549C24.7813 20.5488 24.8359 20.6618 24.9034 20.7302C25.752 21.5924 26.6069 22.4474 27.4992 23.3433C28.3787 22.4537 29.2309 21.5933 30.0786 20.7293C30.1387 20.6682 30.1971 20.5744 30.1989 20.4941C30.2098 20.0147 30.2044 19.5353 30.2044 18.9584C28.3696 20.0931 26.5932 20.0867 24.773 18.9228L24.773 18.9228ZM27.5138 30.8946C28.0278 30.4043 28.51 29.964 28.9621 29.4955C29.0614 29.3926 29.1134 29.1729 29.0833 29.0289C28.9748 28.5103 28.8244 27.9999 28.6841 27.4886C28.4079 26.4851 28.1272 25.4816 27.8565 24.5063C27.5885 24.5182 27.3707 24.5282 27.1374 24.5382C26.7245 26.043 26.307 27.546 25.9078 29.0544C25.8768 29.1711 25.9288 29.3616 26.0135 29.4472C26.4911 29.9312 26.9906 30.3942 27.5147 30.8946L27.5138 30.8946Z"   fill="#FFFFFF" >
</path>
<path d="M21.9348 30.7223C21.9348 30.9802 21.953 31.24 21.9303 31.4961C21.9029 31.7969 21.6969 32.0083 21.4153 31.9391C21.2303 31.8944 20.9769 31.6611 20.9578 31.4888C20.8985 30.9638 20.8985 30.4233 20.9596 29.8993C20.9796 29.7261 21.2731 29.4426 21.4107 29.459C21.6012 29.4818 21.8446 29.7124 21.9148 29.9084C22.0023 30.1499 21.9357 30.4479 21.9357 30.7214L21.9348 30.7223Z"   fill="#FFFFFF" >
</path>
<path d="M32.8156 30.685C32.8156 30.4417 32.8047 30.1983 32.8174 29.9559C32.8339 29.635 33.0307 29.3935 33.3288 29.45C33.5174 29.4865 33.7772 29.7499 33.8009 29.9367C33.8656 30.4444 33.8364 30.9666 33.8164 31.4825C33.8045 31.7815 33.6104 31.9619 33.3087 31.9547C33.0088 31.9464 32.8366 31.7587 32.8193 31.4588C32.8047 31.2018 32.8165 30.943 32.8156 30.6841L32.8156 30.685Z"   fill="#FFFFFF" >
</path>
<path d="M11.4603 35.0436L12.897 37.954L16.1096 38.4236L13.785 40.6878L14.3336 43.8865L11.4603 42.3755L8.5871 43.8865L9.13571 40.6878L6.81108 38.4236L10.0237 37.954L11.4603 35.0436Z" stroke="rgba(242, 250, 0, 1)" stroke-width="3" stroke-linejoin="round" stroke-linecap="round"    fill="#F2FA00" >
</path>
<path d="M27.506 35.0436L28.9426 37.954L32.1553 38.4236L29.8306 40.6878L30.3792 43.8865L27.506 42.3755L24.6328 43.8865L25.1814 40.6878L22.8568 38.4236L26.0694 37.954L27.506 35.0436Z" stroke="rgba(242, 250, 0, 1)" stroke-width="3" stroke-linejoin="round" stroke-linecap="round"    fill="#F2FA00" >
</path>
<path d="M43.5517 35.0436L44.9883 37.954L48.2009 38.4236L45.8763 40.6878L46.4249 43.8865L43.5517 42.3755L40.6784 43.8865L41.2271 40.6878L38.9024 38.4236L42.1151 37.954L43.5517 35.0436Z" stroke="rgba(242, 250, 0, 1)" stroke-width="3" stroke-linejoin="round" stroke-linecap="round"    fill="#F2FA00" >
</path>
</svg>
