<svg xmlns="http://www.w3.org/2000/svg" xmlns:xlink="http://www.w3.org/1999/xlink" width="55" height="55" viewBox="0 0 55 55" fill="none">
<circle cx="27.5" cy="27.5" r="27.5"   fill="#000000" >
</circle>
<path d="M22.2255 38.9145C22.344 36.4053 22.4288 33.9162 22.5928 31.4325C22.6749 30.1984 23.466 29.3416 24.4668 28.7228C25.1321 28.3108 25.8667 28.0027 26.5895 27.691C27.7881 27.1751 29.0012 26.693 30.2088 26.2008C30.7475 25.9811 31.0255 25.3468 30.6919 24.8719C29.6055 23.327 29.3721 21.5397 29.126 19.7451C28.983 18.7051 28.7925 17.6624 29.0613 16.6234C29.5626 14.6848 30.8933 13.4962 32.729 12.9029C35.1224 12.1291 37.5259 12.9184 39.1082 14.8661C39.9485 15.9006 40.1973 17.1083 40.0442 18.3788C39.8683 19.8371 39.6395 21.2964 39.3105 22.7264C39.1446 23.4473 38.6734 24.0926 38.4018 24.7954C38.2733 25.1289 38.2514 25.52 38.266 25.8809C38.2705 25.9875 38.5558 26.106 38.729 26.178C40.3131 26.8324 41.9108 27.4568 43.4858 28.1322C44.6862 28.6471 45.707 29.3927 46.232 30.6532C46.3241 30.8747 46.4033 31.1171 46.4152 31.3541C46.5474 33.8697 46.6649 36.3862 46.7871 38.9054C46.4507 38.992 46.1472 39.0704 45.7909 39.1624C45.738 38.2054 45.6788 37.2548 45.6341 36.3032C45.563 34.7857 45.5019 33.2681 45.4372 31.7506C45.4008 30.9093 44.9879 30.2458 44.3125 29.8156C43.5897 29.3553 42.8032 28.9825 42.0166 28.6362C40.798 28.0984 39.5548 27.6135 38.3362 27.1122C38.2906 27.1524 38.2505 27.1733 38.2523 27.1879C38.3626 27.897 37.9588 28.34 37.4812 28.7747C36.9544 29.2551 36.4814 29.7946 35.9591 30.2795C35.7222 30.4992 35.6875 30.7015 35.7714 30.9996C36.1925 32.4888 36.5698 33.99 37.0137 35.472C37.2479 36.254 37.1941 36.8765 36.4978 37.4097C36.0302 37.767 35.6383 38.2227 35.2117 38.6338C34.7068 39.1205 34.3358 39.1251 33.84 38.6538C33.3005 38.1416 32.7627 37.6276 32.2222 37.1172C31.8185 36.7362 31.7802 36.2759 31.9187 35.7746C32.3416 34.2388 32.7545 32.7003 33.1947 31.17C33.3068 30.7817 33.2859 30.5028 32.9559 30.2157C32.4647 29.7873 32.0317 29.2933 31.5632 28.8385C31.0829 28.3709 30.5187 27.9517 30.8268 27.0503C30.0949 27.3492 29.4806 27.5971 28.8699 27.8514C27.7634 28.3126 26.6369 28.731 25.5614 29.255C24.5543 29.7454 23.6957 30.4345 23.5808 31.6768C23.5207 32.3266 23.5097 32.981 23.4806 33.6336C23.4086 35.2423 23.3402 36.851 23.2682 38.4597C23.2582 38.6848 23.2317 38.91 23.2108 39.1561C22.8808 39.0749 22.5792 39.002 22.2246 38.9154L22.2255 38.9145ZM34.5127 13.684C31.5487 13.6858 29.6993 15.7302 30.0138 18.6705C30.0976 19.4543 30.1961 20.2382 30.3319 21.0138C30.5415 22.2151 30.8223 23.4036 31.627 24.3697C32.4765 25.3896 33.573 25.9119 34.9128 25.746C36.5953 25.5382 37.6499 24.5292 38.1849 22.9652C38.7646 21.2727 38.9459 19.5045 39.038 17.7317C39.0599 17.3042 38.9769 16.8458 38.8338 16.4402C38.2541 14.8014 36.4677 13.6813 34.5136 13.6822L34.5127 13.684ZM31.7729 25.9228C31.7729 26.4961 31.7665 26.9755 31.7783 27.4549C31.7811 27.5488 31.8358 27.6618 31.9032 27.7302C32.7518 28.5924 33.6067 29.4474 34.499 30.3433C35.3785 29.4537 36.2307 28.5933 37.0784 27.7293C37.1385 27.6682 37.1969 27.5744 37.1987 27.4941C37.2096 27.0147 37.2042 26.5353 37.2042 25.9584C35.3694 27.0931 33.593 27.0867 31.7729 25.9228L31.7729 25.9228ZM34.5136 37.8946C35.0276 37.4043 35.5098 36.964 35.9619 36.4955C36.0612 36.3926 36.1132 36.1729 36.0831 36.0289C35.9746 35.5103 35.8242 34.9999 35.6839 34.4886C35.4077 33.4851 35.127 32.4816 34.8563 31.5063C34.5883 31.5182 34.3705 31.5282 34.1372 31.5382C33.7243 33.043 33.3068 34.546 32.9076 36.0544C32.8766 36.1711 32.9286 36.3616 33.0133 36.4472C33.4909 36.9312 33.9904 37.3942 34.5145 37.8946L34.5136 37.8946Z"   fill="#B93030" >
</path>
<path d="M28.9348 37.7224C28.9348 37.9803 28.9531 38.2401 28.9303 38.4962C28.9029 38.797 28.697 39.0085 28.4153 38.9392C28.2303 38.8945 27.9769 38.6612 27.9578 38.489C27.8985 37.9639 27.8985 37.4235 27.9596 36.8994C27.9797 36.7262 28.2731 36.4427 28.4108 36.4592C28.6013 36.4819 28.8446 36.7125 28.9148 36.9085C29.0023 37.15 28.9358 37.4481 28.9358 37.7215L28.9348 37.7224Z"   fill="#B93030" >
</path>
<path d="M39.8154 37.6852C39.8154 37.4418 39.8045 37.1984 39.8172 36.956C39.8336 36.6352 40.0305 36.3936 40.3285 36.4501C40.5172 36.4866 40.777 36.75 40.8007 36.9369C40.8654 37.4445 40.8362 37.9668 40.8161 38.4827C40.8043 38.7816 40.6102 38.9621 40.3085 38.9548C40.0086 38.9466 39.8363 38.7588 39.819 38.459C39.8045 38.2019 39.8163 37.9431 39.8154 37.6842L39.8154 37.6852Z"   fill="#B93030" >
</path>
</svg>
